<svg id="visual" viewBox="0 0 450 900" width="450" height="900" xmlns="http://www.w3.org/2000/svg" xmlns:xlink="http://www.w3.org/1999/xlink" version="1.1"><path d="M0 79L8.3 89.5C16.7 100 33.3 121 50 122.2C66.7 123.3 83.3 104.7 100 93.8C116.7 83 133.3 80 150 90.5C166.7 101 183.3 125 200 135.5C216.7 146 233.3 143 250 136.2C266.7 129.3 283.3 118.7 300 121.7C316.7 124.7 333.3 141.3 350 134.7C366.7 128 383.3 98 400 92.8C416.7 87.7 433.3 107.3 441.7 117.2L450 127L450 0L441.7 0C433.3 0 416.7 0 400 0C383.3 0 366.7 0 350 0C333.3 0 316.7 0 300 0C283.3 0 266.7 0 250 0C233.3 0 216.7 0 200 0C183.3 0 166.7 0 150 0C133.3 0 116.7 0 100 0C83.3 0 66.7 0 50 0C33.3 0 16.7 0 8.3 0L0 0Z" fill="#fdd79f"></path><path d="M0 140L8.3 132.3C16.7 124.7 33.3 109.3 50 95.5C66.7 81.7 83.3 69.3 100 62.5C116.7 55.7 133.3 54.3 150 67.5C166.7 80.7 183.3 108.3 200 115.5C216.7 122.7 233.3 109.3 250 102.2C266.7 95 283.3 94 300 90C316.7 86 333.3 79 350 85.3C366.7 91.7 383.3 111.3 400 116.3C416.7 121.3 433.3 111.7 441.7 106.8L450 102L450 0L441.7 0C433.3 0 416.7 0 400 0C383.3 0 366.7 0 350 0C333.3 0 316.7 0 300 0C283.3 0 266.7 0 250 0C233.3 0 216.7 0 200 0C183.3 0 166.7 0 150 0C133.3 0 116.7 0 100 0C83.3 0 66.7 0 50 0C33.3 0 16.7 0 8.3 0L0 0Z" fill="#fac57f"></path><path d="M0 88L8.3 79.7C16.7 71.3 33.3 54.7 50 45.8C66.7 37 83.3 36 100 47.7C116.7 59.3 133.3 83.7 150 95C166.7 106.3 183.3 104.7 200 98.8C216.7 93 233.3 83 250 84.2C266.7 85.3 283.3 97.7 300 92.2C316.7 86.7 333.3 63.3 350 53.8C366.7 44.3 383.3 48.7 400 56C416.7 63.3 433.3 73.7 441.7 78.8L450 84L450 0L441.7 0C433.3 0 416.7 0 400 0C383.3 0 366.7 0 350 0C333.3 0 316.7 0 300 0C283.3 0 266.7 0 250 0C233.3 0 216.7 0 200 0C183.3 0 166.7 0 150 0C133.3 0 116.7 0 100 0C83.3 0 66.7 0 50 0C33.3 0 16.7 0 8.3 0L0 0Z" fill="#f7b261"></path><path d="M0 39L8.3 39.5C16.7 40 33.3 41 50 46.2C66.7 51.3 83.3 60.7 100 67.5C116.7 74.3 133.3 78.7 150 80.7C166.7 82.7 183.3 82.3 200 78.8C216.7 75.3 233.3 68.7 250 64.3C266.7 60 283.3 58 300 52C316.7 46 333.3 36 350 32C366.7 28 383.3 30 400 39C416.7 48 433.3 64 441.7 72L450 80L450 0L441.7 0C433.3 0 416.7 0 400 0C383.3 0 366.7 0 350 0C333.3 0 316.7 0 300 0C283.3 0 266.7 0 250 0C233.3 0 216.7 0 200 0C183.3 0 166.7 0 150 0C133.3 0 116.7 0 100 0C83.3 0 66.7 0 50 0C33.3 0 16.7 0 8.3 0L0 0Z" fill="#f49f43"></path><path d="M0 43L8.3 43.3C16.7 43.7 33.3 44.3 50 42.2C66.7 40 83.3 35 100 31.8C116.7 28.7 133.3 27.3 150 25.7C166.7 24 183.3 22 200 20C216.7 18 233.3 16 250 15.3C266.7 14.7 283.3 15.3 300 21C316.7 26.7 333.3 37.3 350 43.8C366.7 50.3 383.3 52.7 400 52.8C416.7 53 433.3 51 441.7 50L450 49L450 0L441.7 0C433.3 0 416.7 0 400 0C383.3 0 366.7 0 350 0C333.3 0 316.7 0 300 0C283.3 0 266.7 0 250 0C233.3 0 216.7 0 200 0C183.3 0 166.7 0 150 0C133.3 0 116.7 0 100 0C83.3 0 66.7 0 50 0C33.3 0 16.7 0 8.3 0L0 0Z" fill="#f18a23"></path></svg>