<svg id="visual" viewBox="0 0 900 450" width="900" height="450" xmlns="http://www.w3.org/2000/svg" xmlns:xlink="http://www.w3.org/1999/xlink" version="1.1"><path d="M0 39L16.7 44.2C33.3 49.3 66.7 59.7 100 60.3C133.3 61 166.7 52 200 46.7C233.3 41.3 266.7 39.7 300 44.8C333.3 50 366.7 62 400 67.2C433.3 72.3 466.7 70.7 500 67.2C533.3 63.7 566.7 58.3 600 59.8C633.3 61.3 666.7 69.7 700 66.5C733.3 63.3 766.7 48.7 800 46.2C833.3 43.7 866.7 53.3 883.3 58.2L900 63L900 0L883.3 0C866.7 0 833.3 0 800 0C766.7 0 733.3 0 700 0C666.7 0 633.3 0 600 0C566.7 0 533.3 0 500 0C466.7 0 433.3 0 400 0C366.7 0 333.3 0 300 0C266.7 0 233.3 0 200 0C166.7 0 133.3 0 100 0C66.7 0 33.3 0 16.7 0L0 0Z" fill="#f18a23"></path><path d="M0 69L16.7 65.2C33.3 61.3 66.7 53.7 100 46.8C133.3 40 166.7 34 200 30.7C233.3 27.3 266.7 26.7 300 33.2C333.3 39.7 366.7 53.3 400 57C433.3 60.7 466.7 54.3 500 50.8C533.3 47.3 566.7 46.7 600 44.7C633.3 42.7 666.7 39.3 700 42.5C733.3 45.7 766.7 55.3 800 57.8C833.3 60.3 866.7 55.7 883.3 53.3L900 51L900 0L883.3 0C866.7 0 833.3 0 800 0C766.7 0 733.3 0 700 0C666.7 0 633.3 0 600 0C566.7 0 533.3 0 500 0C466.7 0 433.3 0 400 0C366.7 0 333.3 0 300 0C266.7 0 233.3 0 200 0C166.7 0 133.3 0 100 0C66.7 0 33.3 0 16.7 0L0 0Z" fill="#f49f43"></path><path d="M0 43L16.7 39C33.3 35 66.7 27 100 22.7C133.3 18.3 166.7 17.7 200 23.5C233.3 29.3 266.7 41.7 300 47.3C333.3 53 366.7 52 400 49C433.3 46 466.7 41 500 41.5C533.3 42 566.7 48 600 45.3C633.3 42.7 666.7 31.3 700 26.7C733.3 22 766.7 24 800 27.7C833.3 31.3 866.7 36.7 883.3 39.3L900 42L900 0L883.3 0C866.7 0 833.3 0 800 0C766.7 0 733.3 0 700 0C666.7 0 633.3 0 600 0C566.7 0 533.3 0 500 0C466.7 0 433.3 0 400 0C366.7 0 333.3 0 300 0C266.7 0 233.3 0 200 0C166.7 0 133.3 0 100 0C66.7 0 33.3 0 16.7 0L0 0Z" fill="#f7b261"></path><path d="M0 19L16.7 19.2C33.3 19.3 66.7 19.7 100 22.2C133.3 24.7 166.7 29.3 200 32.8C233.3 36.3 266.7 38.7 300 39.8C333.3 41 366.7 41 400 39.2C433.3 37.3 466.7 33.7 500 31.5C533.3 29.3 566.7 28.7 600 25.7C633.3 22.7 666.7 17.3 700 15.2C733.3 13 766.7 14 800 18.7C833.3 23.3 866.7 31.7 883.3 35.8L900 40L900 0L883.3 0C866.7 0 833.3 0 800 0C766.7 0 733.3 0 700 0C666.7 0 633.3 0 600 0C566.7 0 533.3 0 500 0C466.7 0 433.3 0 400 0C366.7 0 333.3 0 300 0C266.7 0 233.3 0 200 0C166.7 0 133.3 0 100 0C66.7 0 33.3 0 16.7 0L0 0Z" fill="#fac57f"></path><path d="M0 21L16.7 21.2C33.3 21.3 66.7 21.7 100 20.7C133.3 19.7 166.7 17.3 200 15.7C233.3 14 266.7 13 300 12C333.3 11 366.7 10 400 9.2C433.3 8.3 466.7 7.7 500 7.3C533.3 7 566.7 7 600 9.8C633.3 12.7 666.7 18.3 700 21.7C733.3 25 766.7 26 800 26C833.3 26 866.7 25 883.3 24.5L900 24L900 0L883.3 0C866.7 0 833.3 0 800 0C766.7 0 733.3 0 700 0C666.7 0 633.3 0 600 0C566.7 0 533.3 0 500 0C466.7 0 433.3 0 400 0C366.7 0 333.3 0 300 0C266.7 0 233.3 0 200 0C166.7 0 133.3 0 100 0C66.7 0 33.3 0 16.7 0L0 0Z" fill="#fdd79f"></path></svg>