<svg id="visual" viewBox="0 0 900 450" width="900" height="450" xmlns="http://www.w3.org/2000/svg" xmlns:xlink="http://www.w3.org/1999/xlink" version="1.1"><path d="M0 119L16.7 134.7C33.3 150.3 66.7 181.7 100 183.5C133.3 185.3 166.7 157.7 200 141.5C233.3 125.3 266.7 120.7 300 136.3C333.3 152 366.7 188 400 203.7C433.3 219.3 466.7 214.7 500 204.3C533.3 194 566.7 178 600 182.5C633.3 187 666.7 212 700 202.2C733.3 192.3 766.7 147.7 800 140C833.3 132.3 866.7 161.7 883.3 176.3L900 191L900 0L883.3 0C866.7 0 833.3 0 800 0C766.7 0 733.3 0 700 0C666.7 0 633.3 0 600 0C566.7 0 533.3 0 500 0C466.7 0 433.3 0 400 0C366.7 0 333.3 0 300 0C266.7 0 233.3 0 200 0C166.7 0 133.3 0 100 0C66.7 0 33.3 0 16.7 0L0 0Z" fill="#fdd79f"></path><path d="M0 210L16.7 198.5C33.3 187 66.7 164 100 143.3C133.3 122.7 166.7 104.3 200 94.2C233.3 84 266.7 82 300 101.7C333.3 121.3 366.7 162.7 400 173.5C433.3 184.3 466.7 164.7 500 153.8C533.3 143 566.7 141 600 135C633.3 129 666.7 119 700 128.7C733.3 138.3 766.7 167.7 800 175.2C833.3 182.7 866.7 168.3 883.3 161.2L900 154L900 0L883.3 0C866.7 0 833.3 0 800 0C766.7 0 733.3 0 700 0C666.7 0 633.3 0 600 0C566.7 0 533.3 0 500 0C466.7 0 433.3 0 400 0C366.7 0 333.3 0 300 0C266.7 0 233.3 0 200 0C166.7 0 133.3 0 100 0C66.7 0 33.3 0 16.7 0L0 0Z" fill="#fac57f"></path><path d="M0 132L16.7 119.7C33.3 107.3 66.7 82.7 100 69.5C133.3 56.3 166.7 54.7 200 72.2C233.3 89.7 266.7 126.3 300 143.3C333.3 160.3 366.7 157.7 400 148.8C433.3 140 466.7 125 500 126.7C533.3 128.3 566.7 146.7 600 138.5C633.3 130.3 666.7 95.7 700 81.3C733.3 67 766.7 73 800 84C833.3 95 866.7 111 883.3 119L900 127L900 0L883.3 0C866.7 0 833.3 0 800 0C766.7 0 733.3 0 700 0C666.7 0 633.3 0 600 0C566.7 0 533.3 0 500 0C466.7 0 433.3 0 400 0C366.7 0 333.3 0 300 0C266.7 0 233.3 0 200 0C166.7 0 133.3 0 100 0C66.7 0 33.3 0 16.7 0L0 0Z" fill="#f7b261"></path><path d="M0 59L16.7 59.7C33.3 60.3 66.7 61.7 100 69.3C133.3 77 166.7 91 200 101.3C233.3 111.7 266.7 118.3 300 121.5C333.3 124.7 366.7 124.3 400 119C433.3 113.7 466.7 103.3 500 96.8C533.3 90.3 566.7 87.7 600 78.7C633.3 69.7 666.7 54.3 700 48.2C733.3 42 766.7 45 800 58.7C833.3 72.3 866.7 96.7 883.3 108.8L900 121L900 0L883.3 0C866.7 0 833.3 0 800 0C766.7 0 733.3 0 700 0C666.7 0 633.3 0 600 0C566.7 0 533.3 0 500 0C466.7 0 433.3 0 400 0C366.7 0 333.3 0 300 0C266.7 0 233.3 0 200 0C166.7 0 133.3 0 100 0C66.7 0 33.3 0 16.7 0L0 0Z" fill="#f49f43"></path><path d="M0 66L16.7 66.3C33.3 66.7 66.7 67.3 100 64C133.3 60.7 166.7 53.3 200 48.5C233.3 43.7 266.7 41.3 300 38.7C333.3 36 366.7 33 400 30.2C433.3 27.3 466.7 24.7 500 23.7C533.3 22.7 566.7 23.3 600 31.8C633.3 40.3 666.7 56.7 700 66.3C733.3 76 766.7 79 800 79.3C833.3 79.7 866.7 77.3 883.3 76.2L900 75L900 0L883.3 0C866.7 0 833.3 0 800 0C766.7 0 733.3 0 700 0C666.7 0 633.3 0 600 0C566.7 0 533.3 0 500 0C466.7 0 433.3 0 400 0C366.7 0 333.3 0 300 0C266.7 0 233.3 0 200 0C166.7 0 133.3 0 100 0C66.7 0 33.3 0 16.7 0L0 0Z" fill="#f18a23"></path></svg>