<svg id="visual" viewBox="0 0 900 450" width="900" height="450" xmlns="http://www.w3.org/2000/svg" xmlns:xlink="http://www.w3.org/1999/xlink" version="1.1"><path d="M0 409L16.7 403.8C33.3 398.7 66.7 388.3 100 387.7C133.3 387 166.7 396 200 401.3C233.3 406.7 266.7 408.3 300 403.2C333.3 398 366.7 386 400 380.8C433.3 375.7 466.7 377.3 500 380.8C533.3 384.3 566.7 389.7 600 388.2C633.3 386.7 666.7 378.3 700 381.5C733.3 384.7 766.7 399.3 800 401.8C833.3 404.3 866.7 394.7 883.3 389.8L900 385L900 451L883.3 451C866.7 451 833.3 451 800 451C766.7 451 733.3 451 700 451C666.7 451 633.3 451 600 451C566.7 451 533.3 451 500 451C466.7 451 433.3 451 400 451C366.7 451 333.3 451 300 451C266.7 451 233.3 451 200 451C166.7 451 133.3 451 100 451C66.7 451 33.3 451 16.7 451L0 451Z" fill="#f18a23"></path><path d="M0 379L16.7 382.8C33.3 386.7 66.7 394.3 100 401.2C133.3 408 166.7 414 200 417.3C233.3 420.7 266.7 421.3 300 414.8C333.3 408.3 366.7 394.7 400 391C433.3 387.3 466.7 393.7 500 397.2C533.3 400.7 566.7 401.3 600 403.3C633.3 405.3 666.7 408.7 700 405.5C733.3 402.3 766.7 392.7 800 390.2C833.3 387.7 866.7 392.3 883.3 394.7L900 397L900 451L883.3 451C866.7 451 833.3 451 800 451C766.7 451 733.3 451 700 451C666.7 451 633.3 451 600 451C566.7 451 533.3 451 500 451C466.7 451 433.3 451 400 451C366.7 451 333.3 451 300 451C266.7 451 233.3 451 200 451C166.7 451 133.3 451 100 451C66.7 451 33.3 451 16.7 451L0 451Z" fill="#f49f43"></path><path d="M0 405L16.7 409C33.3 413 66.7 421 100 425.3C133.3 429.7 166.7 430.3 200 424.5C233.3 418.7 266.7 406.3 300 400.7C333.3 395 366.7 396 400 399C433.3 402 466.7 407 500 406.5C533.3 406 566.7 400 600 402.7C633.3 405.3 666.7 416.7 700 421.3C733.3 426 766.7 424 800 420.3C833.3 416.7 866.7 411.3 883.3 408.7L900 406L900 451L883.3 451C866.7 451 833.3 451 800 451C766.7 451 733.3 451 700 451C666.7 451 633.3 451 600 451C566.7 451 533.3 451 500 451C466.7 451 433.3 451 400 451C366.7 451 333.3 451 300 451C266.7 451 233.3 451 200 451C166.7 451 133.3 451 100 451C66.7 451 33.3 451 16.7 451L0 451Z" fill="#f7b261"></path><path d="M0 429L16.7 428.8C33.3 428.7 66.7 428.3 100 425.8C133.3 423.3 166.7 418.7 200 415.2C233.3 411.7 266.7 409.3 300 408.2C333.3 407 366.7 407 400 408.8C433.3 410.7 466.7 414.3 500 416.5C533.3 418.7 566.7 419.3 600 422.3C633.3 425.3 666.7 430.7 700 432.8C733.3 435 766.7 434 800 429.3C833.3 424.7 866.7 416.3 883.3 412.2L900 408L900 451L883.3 451C866.7 451 833.3 451 800 451C766.7 451 733.3 451 700 451C666.7 451 633.3 451 600 451C566.7 451 533.3 451 500 451C466.7 451 433.3 451 400 451C366.7 451 333.3 451 300 451C266.7 451 233.3 451 200 451C166.7 451 133.3 451 100 451C66.7 451 33.3 451 16.7 451L0 451Z" fill="#fac57f"></path><path d="M0 427L16.7 426.8C33.3 426.7 66.7 426.3 100 427.3C133.3 428.3 166.7 430.7 200 432.3C233.3 434 266.7 435 300 436C333.3 437 366.7 438 400 438.8C433.3 439.7 466.7 440.3 500 440.7C533.3 441 566.7 441 600 438.2C633.3 435.3 666.7 429.7 700 426.3C733.3 423 766.7 422 800 422C833.3 422 866.7 423 883.3 423.5L900 424L900 451L883.3 451C866.7 451 833.3 451 800 451C766.7 451 733.3 451 700 451C666.7 451 633.3 451 600 451C566.7 451 533.3 451 500 451C466.7 451 433.3 451 400 451C366.7 451 333.3 451 300 451C266.7 451 233.3 451 200 451C166.7 451 133.3 451 100 451C66.7 451 33.3 451 16.7 451L0 451Z" fill="#fdd79f"></path></svg>